<svg width="312" height="40" viewBox="0 0 312 40" fill="none" xmlns="http://www.w3.org/2000/svg">
<path d="M43.82 30V16.112H46.984L47.264 18.464C47.6933 17.6427 48.3093 16.9893 49.112 16.504C49.9333 16.0187 50.8947 15.776 51.996 15.776C53.7133 15.776 55.048 16.3173 56 17.4C56.952 18.4827 57.428 20.0693 57.428 22.16V30H53.844V22.496C53.844 21.3013 53.6013 20.3867 53.116 19.752C52.6307 19.1173 51.8747 18.8 50.848 18.8C49.84 18.8 49.0093 19.1547 48.356 19.864C47.7213 20.5733 47.404 21.5627 47.404 22.832V30H43.82ZM66.0632 30.336C64.3272 30.336 62.9832 29.7947 62.0312 28.712C61.0978 27.6293 60.6312 26.0427 60.6312 23.952V16.112H64.1872V23.616C64.1872 24.8107 64.4298 25.7253 64.9152 26.36C65.4005 26.9947 66.1658 27.312 67.2112 27.312C68.2005 27.312 69.0125 26.9573 69.6472 26.248C70.3005 25.5387 70.6272 24.5493 70.6272 23.28V16.112H74.2112V30H71.0472L70.7672 27.648C70.3378 28.4693 69.7125 29.1227 68.8912 29.608C68.0885 30.0933 67.1458 30.336 66.0632 30.336ZM76.5743 30L81.6143 23.056L76.5743 16.112H80.4103L83.9383 21.04L87.4383 16.112H91.3023L86.2343 23.056L91.3023 30H87.4383L83.9383 25.072L80.4103 30H76.5743ZM99.7736 30C98.3176 30 97.151 29.6453 96.2736 28.936C95.3963 28.2267 94.9576 26.9667 94.9576 25.156V19.108H92.5776V16.112H94.9576L95.3776 12.388H98.5416V16.112H102.294V19.108H98.5416V25.184C98.5416 25.856 98.6816 26.3227 98.9616 26.584C99.2603 26.8267 99.7643 26.948 100.474 26.948H102.21V30H99.7736ZM104.195 33.108L111.195 8.244H114.695L107.667 33.108H104.195Z" fill="white"/>
<path d="M117.156 30V9.84H120.74V18.24C121.207 17.4747 121.832 16.8773 122.616 16.448C123.419 16 124.333 15.776 125.36 15.776C127.077 15.776 128.403 16.3173 129.336 17.4C130.288 18.4827 130.764 20.0693 130.764 22.16V30H127.208V22.496C127.208 21.3013 126.965 20.3867 126.48 19.752C126.013 19.1173 125.267 18.8 124.24 18.8C123.232 18.8 122.392 19.1547 121.72 19.864C121.067 20.5733 120.74 21.5627 120.74 22.832V30H117.156ZM140.379 30C138.923 30 137.756 29.6453 136.879 28.936C136.002 28.2267 135.563 26.9667 135.563 25.156V19.108H133.183V16.112H135.563L135.983 12.388H139.147V16.112H142.899V19.108H139.147V25.184C139.147 25.856 139.287 26.3227 139.567 26.584C139.866 26.8267 140.37 26.948 141.079 26.948H142.815V30H140.379ZM145.976 30V16.112H149.14L149.448 17.988C149.896 17.316 150.484 16.784 151.212 16.392C151.959 15.9813 152.818 15.776 153.788 15.776C155.935 15.776 157.456 16.6067 158.352 18.268C158.856 17.5027 159.528 16.896 160.368 16.448C161.227 16 162.16 15.776 163.168 15.776C164.979 15.776 166.37 16.3173 167.34 17.4C168.311 18.4827 168.796 20.0693 168.796 22.16V30H165.212V22.496C165.212 21.3013 164.979 20.3867 164.512 19.752C164.064 19.1173 163.364 18.8 162.412 18.8C161.442 18.8 160.658 19.1547 160.06 19.864C159.482 20.5733 159.192 21.5627 159.192 22.832V30H155.608V22.496C155.608 21.3013 155.375 20.3867 154.908 19.752C154.442 19.1173 153.723 18.8 152.752 18.8C151.8 18.8 151.026 19.1547 150.428 19.864C149.85 20.5733 149.56 21.5627 149.56 22.832V30H145.976ZM172.199 30V9.84H175.783V30H172.199ZM179.137 23.392V20.396H190.869V23.392H179.137ZM197.963 30L192.867 16.112H196.619L200.147 26.612L203.675 16.112H207.427L202.303 30H197.963ZM213.628 30.336C212.433 30.336 211.453 30.1493 210.688 29.776C209.922 29.384 209.353 28.8707 208.98 28.236C208.606 27.6013 208.42 26.9013 208.42 26.136C208.42 24.848 208.924 23.8027 209.932 23C210.94 22.1973 212.452 21.796 214.468 21.796H217.996V21.46C217.996 20.508 217.725 19.808 217.184 19.36C216.642 18.912 215.97 18.688 215.168 18.688C214.44 18.688 213.805 18.8653 213.264 19.22C212.722 19.556 212.386 20.06 212.256 20.732H208.756C208.849 19.724 209.185 18.8467 209.764 18.1C210.361 17.3533 211.126 16.784 212.06 16.392C212.993 15.9813 214.038 15.776 215.196 15.776C217.174 15.776 218.733 16.2707 219.872 17.26C221.01 18.2493 221.58 19.6493 221.58 21.46V30H218.528L218.192 27.76C217.781 28.5067 217.202 29.1227 216.456 29.608C215.728 30.0933 214.785 30.336 213.628 30.336ZM214.44 27.536C215.466 27.536 216.26 27.2 216.82 26.528C217.398 25.856 217.762 25.0253 217.912 24.036H214.86C213.908 24.036 213.226 24.2133 212.816 24.568C212.405 24.904 212.2 25.324 212.2 25.828C212.2 26.3693 212.405 26.7893 212.816 27.088C213.226 27.3867 213.768 27.536 214.44 27.536ZM225 30V9.84H228.584V30H225ZM234.178 13.956C233.524 13.956 232.983 13.76 232.554 13.368C232.143 12.976 231.938 12.4813 231.938 11.884C231.938 11.2867 232.143 10.8013 232.554 10.428C232.983 10.036 233.524 9.84 234.178 9.84C234.831 9.84 235.363 10.036 235.774 10.428C236.203 10.8013 236.418 11.2867 236.418 11.884C236.418 12.4813 236.203 12.976 235.774 13.368C235.363 13.76 234.831 13.956 234.178 13.956ZM232.386 30V16.112H235.97V30H232.386ZM246.095 30.336C244.788 30.336 243.621 30.0187 242.595 29.384C241.568 28.7493 240.756 27.8813 240.159 26.78C239.561 25.6787 239.263 24.428 239.263 23.028C239.263 21.628 239.561 20.3867 240.159 19.304C240.756 18.2027 241.568 17.344 242.595 16.728C243.621 16.0933 244.788 15.776 246.095 15.776C247.14 15.776 248.055 15.972 248.839 16.364C249.623 16.756 250.257 17.3067 250.743 18.016V9.84H254.327V30H251.135L250.743 28.012C250.295 28.628 249.697 29.1693 248.951 29.636C248.223 30.1027 247.271 30.336 246.095 30.336ZM246.851 27.2C248.008 27.2 248.951 26.8173 249.679 26.052C250.425 25.268 250.799 24.2693 250.799 23.056C250.799 21.8427 250.425 20.8533 249.679 20.088C248.951 19.304 248.008 18.912 246.851 18.912C245.712 18.912 244.769 19.2947 244.023 20.06C243.276 20.8253 242.903 21.8147 242.903 23.028C242.903 24.2413 243.276 25.24 244.023 26.024C244.769 26.808 245.712 27.2 246.851 27.2ZM262.764 30.336C261.57 30.336 260.59 30.1493 259.824 29.776C259.059 29.384 258.49 28.8707 258.116 28.236C257.743 27.6013 257.556 26.9013 257.556 26.136C257.556 24.848 258.06 23.8027 259.068 23C260.076 22.1973 261.588 21.796 263.604 21.796H267.132V21.46C267.132 20.508 266.862 19.808 266.32 19.36C265.779 18.912 265.107 18.688 264.304 18.688C263.576 18.688 262.942 18.8653 262.4 19.22C261.859 19.556 261.523 20.06 261.392 20.732H257.892C257.986 19.724 258.322 18.8467 258.9 18.1C259.498 17.3533 260.263 16.784 261.196 16.392C262.13 15.9813 263.175 15.776 264.332 15.776C266.311 15.776 267.87 16.2707 269.008 17.26C270.147 18.2493 270.716 19.6493 270.716 21.46V30H267.664L267.328 27.76C266.918 28.5067 266.339 29.1227 265.592 29.608C264.864 30.0933 263.922 30.336 262.764 30.336ZM263.576 27.536C264.603 27.536 265.396 27.2 265.956 26.528C266.535 25.856 266.899 25.0253 267.048 24.036H263.996C263.044 24.036 262.363 24.2133 261.952 24.568C261.542 24.904 261.336 25.324 261.336 25.828C261.336 26.3693 261.542 26.7893 261.952 27.088C262.363 27.3867 262.904 27.536 263.576 27.536ZM280.133 30C278.677 30 277.51 29.6453 276.633 28.936C275.756 28.2267 275.317 26.9667 275.317 25.156V19.108H272.937V16.112H275.317L275.737 12.388H278.901V16.112H282.653V19.108H278.901V25.184C278.901 25.856 279.041 26.3227 279.321 26.584C279.62 26.8267 280.124 26.948 280.833 26.948H282.569V30H280.133ZM292.039 30.336C290.695 30.336 289.481 30.028 288.399 29.412C287.335 28.796 286.485 27.9467 285.851 26.864C285.235 25.7627 284.927 24.4933 284.927 23.056C284.927 21.6187 285.244 20.3587 285.879 19.276C286.513 18.1747 287.363 17.316 288.427 16.7C289.509 16.084 290.723 15.776 292.067 15.776C293.392 15.776 294.587 16.084 295.651 16.7C296.733 17.316 297.583 18.1747 298.199 19.276C298.833 20.3587 299.151 21.6187 299.151 23.056C299.151 24.4933 298.833 25.7627 298.199 26.864C297.583 27.9467 296.733 28.796 295.651 29.412C294.568 30.028 293.364 30.336 292.039 30.336ZM292.039 27.228C292.972 27.228 293.784 26.8827 294.475 26.192C295.165 25.4827 295.511 24.4373 295.511 23.056C295.511 21.6747 295.165 20.6387 294.475 19.948C293.784 19.2387 292.981 18.884 292.067 18.884C291.115 18.884 290.293 19.2387 289.603 19.948C288.931 20.6387 288.595 21.6747 288.595 23.056C288.595 24.4373 288.931 25.4827 289.603 26.192C290.293 26.8827 291.105 27.228 292.039 27.228ZM302.355 30V16.112H305.547L305.883 18.716C306.387 17.82 307.068 17.1107 307.927 16.588C308.804 16.0467 309.831 15.776 311.007 15.776V19.556H309.999C309.215 19.556 308.515 19.6773 307.899 19.92C307.283 20.1627 306.798 20.5827 306.443 21.18C306.107 21.7773 305.939 22.608 305.939 23.672V30H302.355Z" fill="#41B38A"/>
<path d="M13.5069 31.2314L1.57957 16.6536C0.846287 15.7573 1.75267 14.4629 2.84565 14.8455L20.5158 21.03C21.228 21.2793 21.5093 22.1368 21.0832 22.7595L15.3404 31.1528C14.9085 31.7841 13.9913 31.8234 13.5069 31.2314Z" fill="white"/>
<path d="M28.0523 9.15226L8.23108 24.7866L13.7255 31.5077C14.2101 32.1005 15.1284 32.0608 15.56 31.4285L22.1378 21.7916L29.7093 10.6988C30.4491 9.61488 29.0827 8.33955 28.0523 9.15226Z" fill="#E6F0F0"/>
</svg>
