<svg width="312" height="36" viewBox="0 0 312 36" fill="none" xmlns="http://www.w3.org/2000/svg">
<path d="M43.82 28V14.112H46.984L47.264 16.464C47.6933 15.6427 48.3093 14.9893 49.112 14.504C49.9333 14.0187 50.8947 13.776 51.996 13.776C53.7133 13.776 55.048 14.3173 56 15.4C56.952 16.4827 57.428 18.0693 57.428 20.16V28H53.844V20.496C53.844 19.3013 53.6013 18.3867 53.116 17.752C52.6307 17.1173 51.8747 16.8 50.848 16.8C49.84 16.8 49.0093 17.1547 48.356 17.864C47.7213 18.5733 47.404 19.5627 47.404 20.832V28H43.82ZM66.0632 28.336C64.3272 28.336 62.9832 27.7947 62.0312 26.712C61.0978 25.6293 60.6312 24.0427 60.6312 21.952V14.112H64.1872V21.616C64.1872 22.8107 64.4298 23.7253 64.9152 24.36C65.4005 24.9947 66.1658 25.312 67.2112 25.312C68.2005 25.312 69.0125 24.9573 69.6472 24.248C70.3005 23.5387 70.6272 22.5493 70.6272 21.28V14.112H74.2112V28H71.0472L70.7672 25.648C70.3378 26.4693 69.7125 27.1227 68.8912 27.608C68.0885 28.0933 67.1458 28.336 66.0632 28.336ZM76.5743 28L81.6143 21.056L76.5743 14.112H80.4103L83.9383 19.04L87.4383 14.112H91.3023L86.2343 21.056L91.3023 28H87.4383L83.9383 23.072L80.4103 28H76.5743ZM99.7736 28C98.3176 28 97.151 27.6453 96.2736 26.936C95.3963 26.2267 94.9576 24.9667 94.9576 23.156V17.108H92.5776V14.112H94.9576L95.3776 10.388H98.5416V14.112H102.294V17.108H98.5416V23.184C98.5416 23.856 98.6816 24.3227 98.9616 24.584C99.2603 24.8267 99.7643 24.948 100.474 24.948H102.21V28H99.7736ZM104.195 31.108L111.195 6.244H114.695L107.667 31.108H104.195Z" fill="#003C3C"/>
<path d="M117.156 28V7.84H120.74V16.24C121.207 15.4747 121.832 14.8773 122.616 14.448C123.419 14 124.333 13.776 125.36 13.776C127.077 13.776 128.403 14.3173 129.336 15.4C130.288 16.4827 130.764 18.0693 130.764 20.16V28H127.208V20.496C127.208 19.3013 126.965 18.3867 126.48 17.752C126.013 17.1173 125.267 16.8 124.24 16.8C123.232 16.8 122.392 17.1547 121.72 17.864C121.067 18.5733 120.74 19.5627 120.74 20.832V28H117.156ZM140.379 28C138.923 28 137.756 27.6453 136.879 26.936C136.002 26.2267 135.563 24.9667 135.563 23.156V17.108H133.183V14.112H135.563L135.983 10.388H139.147V14.112H142.899V17.108H139.147V23.184C139.147 23.856 139.287 24.3227 139.567 24.584C139.866 24.8267 140.37 24.948 141.079 24.948H142.815V28H140.379ZM145.976 28V14.112H149.14L149.448 15.988C149.896 15.316 150.484 14.784 151.212 14.392C151.959 13.9813 152.818 13.776 153.788 13.776C155.935 13.776 157.456 14.6067 158.352 16.268C158.856 15.5027 159.528 14.896 160.368 14.448C161.227 14 162.16 13.776 163.168 13.776C164.979 13.776 166.37 14.3173 167.34 15.4C168.311 16.4827 168.796 18.0693 168.796 20.16V28H165.212V20.496C165.212 19.3013 164.979 18.3867 164.512 17.752C164.064 17.1173 163.364 16.8 162.412 16.8C161.442 16.8 160.658 17.1547 160.06 17.864C159.482 18.5733 159.192 19.5627 159.192 20.832V28H155.608V20.496C155.608 19.3013 155.375 18.3867 154.908 17.752C154.442 17.1173 153.723 16.8 152.752 16.8C151.8 16.8 151.026 17.1547 150.428 17.864C149.85 18.5733 149.56 19.5627 149.56 20.832V28H145.976ZM172.199 28V7.84H175.783V28H172.199ZM179.137 21.392V18.396H190.869V21.392H179.137ZM197.963 28L192.867 14.112H196.619L200.147 24.612L203.675 14.112H207.427L202.303 28H197.963ZM213.628 28.336C212.433 28.336 211.453 28.1493 210.688 27.776C209.922 27.384 209.353 26.8707 208.98 26.236C208.606 25.6013 208.42 24.9013 208.42 24.136C208.42 22.848 208.924 21.8027 209.932 21C210.94 20.1973 212.452 19.796 214.468 19.796H217.996V19.46C217.996 18.508 217.725 17.808 217.184 17.36C216.642 16.912 215.97 16.688 215.168 16.688C214.44 16.688 213.805 16.8653 213.264 17.22C212.722 17.556 212.386 18.06 212.256 18.732H208.756C208.849 17.724 209.185 16.8467 209.764 16.1C210.361 15.3533 211.126 14.784 212.06 14.392C212.993 13.9813 214.038 13.776 215.196 13.776C217.174 13.776 218.733 14.2707 219.872 15.26C221.01 16.2493 221.58 17.6493 221.58 19.46V28H218.528L218.192 25.76C217.781 26.5067 217.202 27.1227 216.456 27.608C215.728 28.0933 214.785 28.336 213.628 28.336ZM214.44 25.536C215.466 25.536 216.26 25.2 216.82 24.528C217.398 23.856 217.762 23.0253 217.912 22.036H214.86C213.908 22.036 213.226 22.2133 212.816 22.568C212.405 22.904 212.2 23.324 212.2 23.828C212.2 24.3693 212.405 24.7893 212.816 25.088C213.226 25.3867 213.768 25.536 214.44 25.536ZM225 28V7.84H228.584V28H225ZM234.178 11.956C233.524 11.956 232.983 11.76 232.554 11.368C232.143 10.976 231.938 10.4813 231.938 9.884C231.938 9.28667 232.143 8.80133 232.554 8.428C232.983 8.036 233.524 7.84 234.178 7.84C234.831 7.84 235.363 8.036 235.774 8.428C236.203 8.80133 236.418 9.28667 236.418 9.884C236.418 10.4813 236.203 10.976 235.774 11.368C235.363 11.76 234.831 11.956 234.178 11.956ZM232.386 28V14.112H235.97V28H232.386ZM246.095 28.336C244.788 28.336 243.621 28.0187 242.595 27.384C241.568 26.7493 240.756 25.8813 240.159 24.78C239.561 23.6787 239.263 22.428 239.263 21.028C239.263 19.628 239.561 18.3867 240.159 17.304C240.756 16.2027 241.568 15.344 242.595 14.728C243.621 14.0933 244.788 13.776 246.095 13.776C247.14 13.776 248.055 13.972 248.839 14.364C249.623 14.756 250.257 15.3067 250.743 16.016V7.84H254.327V28H251.135L250.743 26.012C250.295 26.628 249.697 27.1693 248.951 27.636C248.223 28.1027 247.271 28.336 246.095 28.336ZM246.851 25.2C248.008 25.2 248.951 24.8173 249.679 24.052C250.425 23.268 250.799 22.2693 250.799 21.056C250.799 19.8427 250.425 18.8533 249.679 18.088C248.951 17.304 248.008 16.912 246.851 16.912C245.712 16.912 244.769 17.2947 244.023 18.06C243.276 18.8253 242.903 19.8147 242.903 21.028C242.903 22.2413 243.276 23.24 244.023 24.024C244.769 24.808 245.712 25.2 246.851 25.2ZM262.764 28.336C261.57 28.336 260.59 28.1493 259.824 27.776C259.059 27.384 258.49 26.8707 258.116 26.236C257.743 25.6013 257.556 24.9013 257.556 24.136C257.556 22.848 258.06 21.8027 259.068 21C260.076 20.1973 261.588 19.796 263.604 19.796H267.132V19.46C267.132 18.508 266.862 17.808 266.32 17.36C265.779 16.912 265.107 16.688 264.304 16.688C263.576 16.688 262.942 16.8653 262.4 17.22C261.859 17.556 261.523 18.06 261.392 18.732H257.892C257.986 17.724 258.322 16.8467 258.9 16.1C259.498 15.3533 260.263 14.784 261.196 14.392C262.13 13.9813 263.175 13.776 264.332 13.776C266.311 13.776 267.87 14.2707 269.008 15.26C270.147 16.2493 270.716 17.6493 270.716 19.46V28H267.664L267.328 25.76C266.918 26.5067 266.339 27.1227 265.592 27.608C264.864 28.0933 263.922 28.336 262.764 28.336ZM263.576 25.536C264.603 25.536 265.396 25.2 265.956 24.528C266.535 23.856 266.899 23.0253 267.048 22.036H263.996C263.044 22.036 262.363 22.2133 261.952 22.568C261.542 22.904 261.336 23.324 261.336 23.828C261.336 24.3693 261.542 24.7893 261.952 25.088C262.363 25.3867 262.904 25.536 263.576 25.536ZM280.133 28C278.677 28 277.51 27.6453 276.633 26.936C275.756 26.2267 275.317 24.9667 275.317 23.156V17.108H272.937V14.112H275.317L275.737 10.388H278.901V14.112H282.653V17.108H278.901V23.184C278.901 23.856 279.041 24.3227 279.321 24.584C279.62 24.8267 280.124 24.948 280.833 24.948H282.569V28H280.133ZM292.039 28.336C290.695 28.336 289.481 28.028 288.399 27.412C287.335 26.796 286.485 25.9467 285.851 24.864C285.235 23.7627 284.927 22.4933 284.927 21.056C284.927 19.6187 285.244 18.3587 285.879 17.276C286.513 16.1747 287.363 15.316 288.427 14.7C289.509 14.084 290.723 13.776 292.067 13.776C293.392 13.776 294.587 14.084 295.651 14.7C296.733 15.316 297.583 16.1747 298.199 17.276C298.833 18.3587 299.151 19.6187 299.151 21.056C299.151 22.4933 298.833 23.7627 298.199 24.864C297.583 25.9467 296.733 26.796 295.651 27.412C294.568 28.028 293.364 28.336 292.039 28.336ZM292.039 25.228C292.972 25.228 293.784 24.8827 294.475 24.192C295.165 23.4827 295.511 22.4373 295.511 21.056C295.511 19.6747 295.165 18.6387 294.475 17.948C293.784 17.2387 292.981 16.884 292.067 16.884C291.115 16.884 290.293 17.2387 289.603 17.948C288.931 18.6387 288.595 19.6747 288.595 21.056C288.595 22.4373 288.931 23.4827 289.603 24.192C290.293 24.8827 291.105 25.228 292.039 25.228ZM302.355 28V14.112H305.547L305.883 16.716C306.387 15.82 307.068 15.1107 307.927 14.588C308.804 14.0467 309.831 13.776 311.007 13.776V17.556H309.999C309.215 17.556 308.515 17.6773 307.899 17.92C307.283 18.1627 306.798 18.5827 306.443 19.18C306.107 19.7773 305.939 20.608 305.939 21.672V28H302.355Z" fill="#41B38A"/>
<path d="M13.5069 29.2314L1.57957 14.6536C0.846287 13.7573 1.75267 12.4629 2.84565 12.8455L20.5158 19.03C21.228 19.2793 21.5093 20.1368 21.0832 20.7595L15.3404 29.1528C14.9085 29.7841 13.9913 29.8234 13.5069 29.2314Z" fill="#00DC82"/>
<path d="M28.0523 7.15226L8.23108 22.7866L13.7255 29.5077C14.2101 30.1005 15.1284 30.0608 15.56 29.4285L22.1378 19.7916L29.7093 8.69877C30.4491 7.61488 29.0827 6.33955 28.0523 7.15226Z" fill="#003C3C"/>
</svg>
